<?xml version="1.0" encoding="UTF-8"?>
<svg id="_レイヤー_1" data-name="レイヤー_1" xmlns="http://www.w3.org/2000/svg" version="1.1" viewBox="0 0 400 400">
  <!-- Generator: Adobe Illustrator 29.8.1, SVG Export Plug-In . SVG Version: 2.1.1 Build 2)  -->
  <defs>
    <style>
      .st0 {
        fill: #8f6552;
      }

      .st0, .st1, .st2 {
        stroke: #000;
        stroke-width: 4px;
      }

      .st0, .st2 {
        stroke-linecap: round;
        stroke-linejoin: round;
      }

      .st1 {
        stroke-miterlimit: 10;
      }

      .st1, .st2 {
        fill: #ecc656;
      }
    </style>
  </defs>
  <path class="st0" d="M111.76,100.16s-6.78,37.92-14.46,58.55c-7.69,20.63-20.05,62.59-10.64,87.75,9.42,25.16,33.14,56.88,70.67,66.37,37.52,9.49,83,8.05,116.36-10.78,33.36-18.82,49.7-70.34,40.49-101.55-9.21-31.21-28.2-104.93-28.2-104.93,0,0-56.6,18.38-86.95,20.35-30.35,1.97-87.27-15.77-87.27-15.77Z"/>
  <path class="st2" d="M104.95,123.81s39.14,13.54,76.87,14.66c31.17.92,59.93-.47,79.54-5.7,17.26-4.6,30.77-8.62,34.81-11.01.93-.55,1.41-1.51,2.09-2.35,3.67-4.53,2.72-12.55-.22-17.59-3.88-6.67-8.59-7.76-16.04-5.28-7.45,2.48-27.91,12.12-63.23,15.66-35.32,3.54-62.31,2.02-87.48-9.72-19.22-8.96-28.3-2.74-30.41,8.14-1.91,9.81,4.07,13.19,4.07,13.19Z"/>
  <path class="st1" d="M131.3,102.48l-9.19,58.07s-.49,9.32,4.65,10.94c5.14,1.62,11.94-24.93,18.33-24.31,6.38.61,1.63,50.85,1.63,50.85,0,0-2.47,7.86,7.58,9.03s13.83-52.08,27.13-51.56c13.3.52,8.05,17.25,21.92,18.74,13.87,1.49,15.44-62.04,15.44-62.04,0,0-23.54,1.91-45.17,1.07-19.45-.75-42.31-10.79-42.31-10.79Z"/>
  <g>
    <path d="M125.93,236.19l.74,2.04c-5.58,4.38-10.29,6.57-14.13,6.57-2.04,0-3.52-.73-4.45-2.18s-1.39-3.29-1.39-5.52c0-3.7.98-7.51,2.95-11.43s4.36-6.91,7.17-9c2.2-1.62,4.69-2.43,7.45-2.43,1.73,0,3.05.33,3.94.98s1.34,1.45,1.34,2.39c0,.73-.23,1.32-.7,1.78s-1.12.69-1.97.69-1.88-.38-3.16-1.12c-1.34-.8-2.45-1.2-3.34-1.2-1.15,0-2.29.52-3.43,1.56-1.14,1.04-2.22,3.06-3.25,6.05-1.03,3-1.55,6-1.55,9.02,0,2.22.43,3.94,1.3,5.16.63.94,1.52,1.4,2.67,1.4,2.74,0,6.01-1.59,9.81-4.78Z"/>
    <path d="M155.07,213.65l2.32-.49-2.64,8.89c-1.05,3.54-2.05,7.62-2.99,12.23-.52,2.51-.77,4.12-.77,4.85s.29,1.09.88,1.09c.38,0,.97-.25,1.79-.74,1.45-.87,2.85-1.95,4.18-3.23l1.12,1.37c-2.67,2.44-4.38,3.91-5.13,4.43-1.5,1.03-2.93,1.79-4.29,2.29-.89.33-1.76.49-2.6.49-.61,0-1.07-.14-1.37-.42s-.46-.69-.46-1.23c0-.35.09-.83.28-1.44l1.41-4.78c-2.02,2.41-4.42,4.49-7.21,6.22-1.71,1.08-3.28,1.62-4.71,1.62s-2.4-.48-3.13-1.44c-.98-1.29-1.48-2.98-1.48-5.06,0-2.48.66-5.25,1.99-8.3s3.1-5.81,5.33-8.3,4.57-4.31,7.03-5.48c1.9-.89,4.34-1.34,7.31-1.34.75,0,1.51.05,2.29.14l.84-1.37ZM150.71,219.03c-1.27-.26-2.33-.39-3.2-.39-2.11,0-3.95.58-5.52,1.74s-3.03,3.25-4.38,6.26-2.02,6.02-2.02,9.02c0,1.59.27,2.74.81,3.45s1.24,1.05,2.11,1.05c1.62,0,3.35-.87,5.2-2.62s3.21-4.26,4.08-7.54l2.92-10.97Z"/>
    <path d="M185.08,215.17h5.01l-3.3,12.29c-1.95,7.14-2.92,11.2-2.92,12.18,0,.45.11.79.32,1.02s.45.35.7.35c.4,0,.87-.18,1.41-.53.77-.54,2.24-1.9,4.39-4.08l1.16,1.3c-4.71,4.9-8.18,7.35-10.41,7.35-.75,0-1.39-.29-1.92-.86s-.79-1.39-.79-2.44c0-1.22.25-2.85.76-4.89-2.08,2.39-4.66,4.49-7.73,6.29-2.04,1.2-3.81,1.79-5.3,1.79-.82,0-1.46-.27-1.93-.81-.47-.54-.7-1.4-.7-2.57,0-.92.11-1.9.32-2.96.3-1.48,1.08-4.45,2.32-8.91,1.57-5.66,2.36-9.05,2.36-10.17,0-.66-.23-.99-.7-.99-.42,0-1,.22-1.72.65s-1.97,1.48-3.73,3.15l-1.55-1.23c3.14-2.81,5.54-4.66,7.19-5.54s2.98-1.32,3.99-1.32c.56,0,1.02.21,1.37.62s.53,1.05.53,1.92c0,1.62-.84,5.6-2.53,11.93-1.5,5.7-2.25,8.95-2.25,9.75,0,.49.16.92.47,1.27.32.35.66.53,1.04.53,1.31,0,3.17-1.08,5.58-3.25s3.99-4.63,4.74-7.4l3.83-14.45Z"/>
    <path d="M204.29,208.84l5.58-2.14-2.53,9.84h7.28l-.56,2.5h-7.29l-3.07,11.78c-.97,3.54-1.46,6-1.46,7.38,0,.63.13,1.09.4,1.37s.64.42,1.11.42c.73,0,1.84-.43,3.34-1.3,1.97-1.15,3.84-2.45,5.62-3.9l1.34,1.62c-5.13,3.87-8.57,6.23-10.3,7.1s-3.13,1.3-4.18,1.3c-.87,0-1.55-.32-2.06-.95s-.76-1.66-.76-3.09c0-1.69.45-4.27,1.34-7.73l3.58-13.99h-5.7l.63-2.5h5.7l1.97-7.7Z"/>
    <path d="M218.6,222.41l-1.55-1.2c2.34-2.58,4.48-4.41,6.41-5.5s3.58-1.63,4.93-1.63c.75,0,1.32.16,1.72.49.4.33.6.77.6,1.34,0,.68-.76,3.56-2.28,8.65-2.48,8.32-3.72,13.34-3.72,15.05,0,.33.08.6.25.83s.34.33.53.33c.75,0,2.67-1.45,5.77-4.36l1.37,1.34c-3.21,3.02-5.55,4.96-7.03,5.8s-2.68,1.27-3.62,1.27c-.82,0-1.47-.26-1.95-.77s-.72-1.23-.72-2.14c0-2.93,1.76-10.09,5.27-21.48.16-.54.25-1.02.25-1.44,0-.47-.21-.7-.63-.7-.47,0-1,.19-1.6.56s-1.93,1.57-3.99,3.59ZM232.41,199.13c.73,0,1.32.24,1.79.72s.7,1.1.7,1.85c0,1.03-.36,1.94-1.07,2.72s-1.52,1.18-2.41,1.18c-.7,0-1.29-.25-1.76-.74s-.7-1.14-.7-1.93c0-1.05.34-1.95,1.02-2.69s1.49-1.11,2.43-1.11Z"/>
    <path d="M252.17,214.25c2.3,0,4.21.91,5.73,2.74s2.29,4.37,2.29,7.63c0,5.2-1.83,9.87-5.48,14.01s-7.52,6.21-11.6,6.21c-2.51,0-4.53-.82-6.06-2.46s-2.3-3.88-2.3-6.71c0-4.92,1.41-9.47,4.22-13.64,3.54-5.18,7.95-7.77,13.22-7.77ZM249.18,216.89c-1.99,0-3.92,1.42-5.78,4.27s-2.79,6.78-2.79,11.79c0,3.05.57,5.45,1.72,7.21.84,1.29,1.97,1.93,3.38,1.93,1.97,0,3.76-1.22,5.38-3.66,2.06-3.16,3.09-7.09,3.09-11.78,0-3.52-.47-6.02-1.42-7.52s-2.14-2.25-3.57-2.25Z"/>
    <path d="M264.58,222.51l-1.2-1.23c3-2.87,5.39-4.78,7.18-5.72,1.78-.94,3.31-1.41,4.57-1.41.49,0,.88.11,1.16.32s.42.46.42.74c0,.21-.06.59-.18,1.12l-1.58,7.08c2.39-2.65,5.38-5.13,8.99-7.42,1.92-1.2,3.5-1.79,4.74-1.79.91,0,1.63.29,2.14.88s.77,1.43.77,2.53c0,.73-.11,1.55-.32,2.46-.37,1.52-1.35,4.84-2.94,9.95-1.5,4.78-2.24,7.96-2.24,9.53,0,.48.07.84.21,1.08s.34.36.6.36c.68,0,1.75-.66,3.2-1.97,1.03-.94,2.06-1.8,3.09-2.6l.88,1.27c-2.16,2.38-4.39,4.29-6.71,5.74-1.48.93-2.7,1.4-3.66,1.4-.89,0-1.58-.32-2.07-.97s-.74-1.69-.74-3.15c0-2.09,1.3-7.28,3.9-15.57.8-2.95,1.2-4.68,1.2-5.17,0-.73-.43-1.09-1.3-1.09-.94,0-2.14.49-3.62,1.48-2.2,1.46-4.04,3.17-5.52,5.14-.94,1.27-1.72,3.29-2.36,6.05l-2.85,12.29h-5.24c.98-3.52,1.84-6.89,2.57-10.1l3.13-13.38c.12-.54.18-.93.18-1.16,0-.63-.23-.95-.7-.95-.38,0-.91.25-1.62.74-1.45.97-2.81,2.15-4.08,3.54Z"/>
  </g>
</svg>