<?xml version="1.0" encoding="UTF-8"?>
<svg id="_レイヤー_1" data-name=" レイヤー 1" xmlns="http://www.w3.org/2000/svg" viewBox="0 0 1451.34 1451.34">
  <defs>
    <style>
      .cls-1 {
        fill: #8f6552;
      }

      .cls-1, .cls-2, .cls-3, .cls-4, .cls-5 {
        stroke: #000;
      }

      .cls-1, .cls-2, .cls-4, .cls-5 {
        stroke-linecap: round;
      }

      .cls-1, .cls-3, .cls-4 {
        stroke-width: 4px;
      }

      .cls-1, .cls-4, .cls-5 {
        stroke-linejoin: round;
      }

      .cls-2 {
        stroke-miterlimit: 5;
      }

      .cls-2, .cls-5 {
        fill: none;
        stroke-width: 7px;
      }

      .cls-3 {
        stroke-miterlimit: 10;
      }

      .cls-3, .cls-4 {
        fill: #ecc656;
      }
    </style>
  </defs>
  <path class="cls-1" d="M182.94,61.93s-41.66,233.22-88.92,360.11c-47.26,126.9-123.38,384.96-65.41,539.8,57.89,154.75,203.86,349.83,434.65,408.21,230.79,58.39,510.52,49.52,715.71-66.25,205.19-115.77,305.66-432.64,249.03-624.62-56.63-191.98-173.49-645.36-173.49-645.36,0,0-348.15,113.1-534.86,125.14-186.71,12.13-536.78-96.95-536.78-96.95l.08-.08Z"/>
  <path class="cls-4" d="M141.03,207.4s240.75,83.32,472.79,90.18c191.73,5.69,368.65-2.93,489.27-35.05,106.15-28.27,189.3-53.03,214.06-67.76,5.69-3.43,8.7-9.29,12.88-14.47,22.59-27.86,16.73-77.13-1.34-108.16-23.84-40.99-52.78-47.68-98.71-32.46-45.84,15.22-171.65,74.53-388.97,96.28-217.24,21.75-383.2,12.46-538.12-59.81-118.2-55.13-174.08-16.9-187.04,50.02-11.71,60.31,25.01,81.14,25.01,81.14l.17.08Z"/>
  <path class="cls-3" d="M303.06,76.24l-56.55,357.19s-3.01,57.3,28.61,67.25c31.62,9.95,73.44-153.33,112.68-149.57,39.23,3.76,10.04,312.77,10.04,312.77,0,0-15.22,48.35,46.59,55.54,61.82,7.19,85.07-320.38,166.88-317.12,81.81,3.26,49.52,106.07,134.84,115.27,85.32,9.2,94.94-381.61,94.94-381.61,0,0-144.8,11.71-277.89,6.61-119.62-4.6-260.24-66.33-260.24-66.33h.08Z"/>
  <path class="cls-5" d="M42.58,765.18s263,156.34,655.32,160.61c386.97,4.18,717.72-176.25,717.72-176.25"/>
  <path class="cls-2" d="M90.09,1043.32s167.05,151.74,591.91,168.64c436.82,17.4,706.01-226.94,706.01-226.94"/>
</svg>