<?xml version="1.0" encoding="UTF-8"?>
<svg id="_レイヤー_1" data-name="レイヤー_1" xmlns="http://www.w3.org/2000/svg" version="1.1" viewBox="0 0 400 400">
  <!-- Generator: Adobe Illustrator 29.8.1, SVG Export Plug-In . SVG Version: 2.1.1 Build 2)  -->
  <defs>
    <style>
      .st0, .st1, .st2, .st3 {
        stroke-width: 4px;
      }

      .st0, .st1, .st2, .st3, .st4, .st5 {
        stroke: #000;
      }

      .st0, .st2 {
        fill: #fff;
      }

      .st0, .st4 {
        stroke-linecap: round;
        stroke-linejoin: round;
      }

      .st1, .st2, .st3, .st6, .st5 {
        stroke-miterlimit: 10;
      }

      .st3, .st4, .st5 {
        fill: none;
      }

      .st6 {
        fill: #ecc656;
        stroke: #ecc656;
      }

      .st4, .st5 {
        stroke-width: 7px;
      }
    </style>
  </defs>
  <path class="st0" d="M185.69,202.18s-43.45,53.64-73.08,53.64c-29.35,0-51.32-27.08-23.73-53.64-25.54-27.85-4.09-53.66,23.73-53.64,29.62.02,73.08,53.64,73.08,53.64Z"/>
  <path class="st0" d="M214.31,202.18s43.45,53.64,73.08,53.64c29.35,0,51.32-27.08,23.73-53.64,25.54-27.85,4.09-53.66-23.73-53.64-29.62.02-73.08,53.64-73.08,53.64Z"/>
  <circle class="st2" cx="200.01" cy="163.35" r="36.91"/>
  <path class="st2" d="M236.91,241.34c0,20.38-36.91,62.39-36.91,62.39,0,0-36.91-42-36.91-62.39s16.52-36.91,36.91-36.91,36.91,16.52,36.91,36.91Z"/>
  <path class="st4" d="M164.66,232.49s12.85-5.57,31.52-6.1c18.67-.53,34.99,3.64,34.99,3.64"/>
  <path class="st5" d="M166.27,254.08s14.46-5.82,31.25-5.82,35.45,5.82,35.45,5.82"/>
  <path class="st5" d="M180.01,277.97s7.3-6.74,20-6.74,20,6.74,20,6.74"/>
  <line class="st3" x1="189.77" y1="127.07" x2="172.7" y2="99.46"/>
  <line class="st3" x1="214.31" y1="129.32" x2="227.1" y2="99.46"/>
  <circle class="st1" cx="172.7" cy="99.46" r="3.18"/>
  <circle class="st1" cx="227.1" cy="99.46" r="3.18"/>
  <g>
    <path class="st6" d="M120.78,210.71h-11.14v-21.34h2.32v19.35h8.82v1.99Z"/>
    <path class="st6" d="M134.53,210.07c-.87.42-2.46.95-4.79.95-4.45,0-7.11-3.14-7.11-7.7,0-4.79,2.69-8.23,6.8-8.23,4.7,0,5.91,4.31,5.91,6.97,0,.53-.03.92-.06,1.29h-10.39c.03,4.23,2.44,5.82,5.18,5.82,1.9,0,3.05-.39,4-.78l.45,1.68ZM133.04,201.61c.03-2.07-.84-4.76-3.84-4.76-2.8,0-4.03,2.66-4.26,4.76h8.09Z"/>
    <path class="st6" d="M145.95,197.78c-.56-.36-1.6-.9-2.97-.9-1.68,0-2.58,1.04-2.58,2.27,0,1.32.87,1.93,2.83,2.77,2.46,1.01,3.89,2.3,3.89,4.59,0,2.72-2.07,4.51-5.4,4.51-1.51,0-2.97-.42-4-1.04l.64-1.79c.81.48,2.13,1.04,3.44,1.04,2.04,0,3.05-1.09,3.05-2.46s-.81-2.21-2.83-3.02c-2.58-1.04-3.89-2.46-3.89-4.31,0-2.38,1.9-4.34,4.98-4.34,1.46,0,2.69.42,3.5.92l-.67,1.76Z"/>
    <path class="st6" d="M169.78,191.37h-6.3v19.35h-2.32v-19.35h-6.27v-1.96h14.9v1.96Z"/>
    <path class="st6" d="M184.7,202.96c0,5.68-3.75,8.09-7.14,8.09-3.92,0-6.94-2.94-6.94-7.87,0-5.21,3.25-8.09,7.14-8.09,4.17,0,6.94,3.19,6.94,7.87ZM177.68,196.91c-3.3,0-4.68,3.25-4.68,6.19,0,3.39,1.88,6.13,4.62,6.13s4.7-2.74,4.7-6.19c0-2.72-1.32-6.13-4.65-6.13Z"/>
    <path class="st6" d="M200.19,206.65c0,1.57.08,2.88.14,4.06h-2.1l-.11-2.41h-.08c-.7,1.2-2.27,2.74-4.87,2.74-2.3,0-5.01-1.32-5.01-6.58v-9.02h2.32v8.6c0,2.97.87,5.04,3.42,5.04,1.82,0,3.98-1.46,3.98-4.14v-9.49h2.32v11.2Z"/>
    <path class="st6" d="M211.75,197.41c-.25-.03-.5-.06-.84-.06-2.52,0-3.81,2.49-3.81,5.07v8.29h-2.32v-10.7c0-1.62-.03-3.11-.11-4.56h2.04l.11,2.94h.08c.67-1.9,2.27-3.28,4.14-3.28.25,0,.45.06.7.08v2.21Z"/>
    <path class="st6" d="M226.67,210.71h-2.32v-9.02c0-2.49-.9-4.68-3.56-4.68-1.99,0-4,1.68-4,4.34v9.35h-2.32v-11.34c0-1.57-.06-2.72-.11-3.95h2.07l.14,2.49h.06c.76-1.48,2.52-2.83,4.9-2.83,1.9,0,5.15,1.15,5.15,6.33v9.3Z"/>
    <path class="st6" d="M241.99,210.07c-.87.42-2.46.95-4.79.95-4.45,0-7.11-3.14-7.11-7.7,0-4.79,2.69-8.23,6.8-8.23,4.7,0,5.91,4.31,5.91,6.97,0,.53-.03.92-.06,1.29h-10.39c.03,4.23,2.44,5.82,5.18,5.82,1.9,0,3.05-.39,4-.78l.45,1.68ZM240.51,201.61c.03-2.07-.84-4.76-3.84-4.76-2.8,0-4.03,2.66-4.26,4.76h8.09Z"/>
    <path class="st6" d="M253.41,197.78c-.56-.36-1.6-.9-2.97-.9-1.68,0-2.58,1.04-2.58,2.27,0,1.32.87,1.93,2.83,2.77,2.46,1.01,3.89,2.3,3.89,4.59,0,2.72-2.07,4.51-5.4,4.51-1.51,0-2.97-.42-4-1.04l.64-1.79c.81.48,2.13,1.04,3.44,1.04,2.04,0,3.05-1.09,3.05-2.46s-.81-2.21-2.83-3.02c-2.58-1.04-3.89-2.46-3.89-4.31,0-2.38,1.9-4.34,4.98-4.34,1.46,0,2.69.42,3.5.92l-.67,1.76Z"/>
    <path class="st6" d="M271.11,202.96c0,5.68-3.75,8.09-7.14,8.09-3.92,0-6.94-2.94-6.94-7.87,0-5.21,3.25-8.09,7.14-8.09,4.17,0,6.94,3.19,6.94,7.87ZM264.08,196.91c-3.3,0-4.68,3.25-4.68,6.19,0,3.39,1.88,6.13,4.62,6.13s4.7-2.74,4.7-6.19c0-2.72-1.32-6.13-4.65-6.13Z"/>
    <path class="st6" d="M276.96,210.71h-2.32v-22.4h2.32v22.4Z"/>
    <path class="st6" d="M288.72,197.78c-.56-.36-1.6-.9-2.97-.9-1.68,0-2.58,1.04-2.58,2.27,0,1.32.87,1.93,2.83,2.77,2.46,1.01,3.89,2.3,3.89,4.59,0,2.72-2.07,4.51-5.4,4.51-1.51,0-2.97-.42-4-1.04l.64-1.79c.81.48,2.13,1.04,3.44,1.04,2.04,0,3.05-1.09,3.05-2.46s-.81-2.21-2.83-3.02c-2.58-1.04-3.89-2.46-3.89-4.31,0-2.38,1.9-4.34,4.98-4.34,1.46,0,2.69.42,3.5.92l-.67,1.76Z"/>
  </g>
</svg>