<?xml version="1.0" encoding="UTF-8"?>
<svg id="_レイヤー_1" data-name="レイヤー_1" xmlns="http://www.w3.org/2000/svg" version="1.1" viewBox="0 0 400 400">
  <!-- Generator: Adobe Illustrator 29.8.1, SVG Export Plug-In . SVG Version: 2.1.1 Build 2)  -->
  <defs>
    <style>
      .st0 {
        fill: #8f6552;
      }

      .st0, .st1, .st2 {
        stroke: #000;
        stroke-width: 4px;
      }

      .st0, .st2 {
        stroke-linecap: round;
        stroke-linejoin: round;
      }

      .st1 {
        stroke-miterlimit: 10;
      }

      .st1, .st2 {
        fill: #ecc656;
      }
    </style>
  </defs>
  <path class="st0" d="M133.23,114.32s-4.98,27.88-10.63,43.05c-5.65,15.17-14.75,46.02-7.82,64.53,6.92,18.5,24.37,41.82,51.96,48.8,27.59,6.98,61.03,5.92,85.56-7.92,24.53-13.84,36.54-51.72,29.77-74.67-6.77-22.95-20.74-77.15-20.74-77.15,0,0-41.62,13.52-63.94,14.96-22.32,1.45-64.17-11.59-64.17-11.59Z"/>
  <path class="st2" d="M128.22,131.7s28.78,9.96,56.52,10.78c22.92.68,44.07-.35,58.49-4.19,12.69-3.38,22.63-6.34,25.59-8.1.68-.41,1.04-1.11,1.54-1.73,2.7-3.33,2-9.22-.16-12.93-2.85-4.9-6.31-5.7-11.8-3.88-5.48,1.82-20.52,8.91-46.5,11.51-25.97,2.6-45.81,1.49-64.33-7.15-14.13-6.59-20.81-2.02-22.36,5.98-1.4,7.21,2.99,9.7,2.99,9.7Z"/>
  <path class="st1" d="M147.59,116.02l-6.76,42.7s-.36,6.85,3.42,8.04c3.78,1.19,8.78-18.33,13.47-17.88s1.2,37.39,1.2,37.39c0,0-1.82,5.78,5.57,6.64,7.39.86,10.17-38.3,19.95-37.91,9.78.38,5.92,12.68,16.12,13.78s11.35-45.62,11.35-45.62c0,0-17.31,1.4-33.22.79-14.3-.55-31.11-7.93-31.11-7.93Z"/>
  <path d="M202.8,191.44h1.15l-4.86,18.98-4.05,17.61c-.4,1.48-.6,2.47-.6,2.99,0,.4.2.72.6.97.4.25,1.3.44,2.71.58,1.05.09,2.09.23,3.09.42l-.7,1.76c-5.04-.54-8.56-.81-10.55-.81-2.91,0-6.06.27-9.46.81l.6-1.76c1.22-.33,2.61-.66,4.18-.98,1.55-.3,2.6-.77,3.16-1.41.77-.82,1.58-2.79,2.43-5.91l3.8-14.52c1.24-5.53,1.86-8.66,1.86-9.39,0-.82-.34-1.23-1.02-1.23-.52,0-2.87.94-7.07,2.81l-.7-1.76c6.09-2.91,9.82-4.83,11.18-5.78,1.36-.95,2.78-2.08,4.25-3.39Z"/>
</svg>