<?xml version="1.0" encoding="UTF-8"?>
<svg id="_レイヤー_1" data-name="レイヤー_1" xmlns="http://www.w3.org/2000/svg" version="1.1" viewBox="0 0 400 400">
  <!-- Generator: Adobe Illustrator 29.8.1, SVG Export Plug-In . SVG Version: 2.1.1 Build 2)  -->
  <defs>
    <style>
      .st0 {
        fill: #8f6552;
      }

      .st0, .st1, .st2 {
        stroke: #000;
        stroke-width: 4px;
      }

      .st0, .st2 {
        stroke-linecap: round;
        stroke-linejoin: round;
      }

      .st1 {
        stroke-miterlimit: 10;
      }

      .st1, .st2 {
        fill: #ecc656;
      }
    </style>
  </defs>
  <path class="st0" d="M135.12,128.43s-4.98,27.88-10.63,43.05-14.75,46.02-7.82,64.53c6.92,18.5,24.37,41.82,51.96,48.8,27.59,6.98,61.03,5.92,85.56-7.92,24.53-13.84,36.54-51.72,29.77-74.67-6.77-22.95-20.74-77.15-20.74-77.15,0,0-41.62,13.52-63.94,14.96-22.32,1.45-64.17-11.59-64.17-11.59Z"/>
  <path class="st2" d="M130.11,145.81s28.78,9.96,56.52,10.78c22.92.68,44.07-.35,58.49-4.19,12.69-3.38,22.63-6.34,25.59-8.1.68-.41,1.04-1.11,1.54-1.73,2.7-3.33,2-9.22-.16-12.93-2.85-4.9-6.31-5.7-11.8-3.88-5.48,1.82-20.52,8.91-46.5,11.51-25.97,2.6-45.81,1.49-64.33-7.15-14.13-6.59-20.81-2.02-22.36,5.98-1.4,7.21,2.99,9.7,2.99,9.7Z"/>
  <path class="st1" d="M149.48,130.13l-6.76,42.7s-.36,6.85,3.42,8.04c3.78,1.19,8.78-18.33,13.47-17.88s1.2,37.39,1.2,37.39c0,0-1.82,5.78,5.57,6.64s10.17-38.3,19.95-37.91c9.78.38,5.92,12.68,16.12,13.78,10.2,1.1,11.35-45.62,11.35-45.62,0,0-17.31,1.4-33.22.79-14.3-.55-31.11-7.93-31.11-7.93Z"/>
  <path d="M190.73,215.62l-1.79-.88c1.85-3.68,3.77-6.23,5.75-7.65,1.98-1.42,4.2-2.13,6.66-2.13,2.95,0,5.31.94,7.07,2.81s2.64,4.07,2.64,6.57c0,1.55-.32,3.12-.95,4.71-.63,1.59-1.68,3.26-3.13,4.99-.94,1.15-3.52,3.53-7.73,7.13-5.67,4.93-9.66,8.9-11.95,11.93,3.07-.14,6.23-.21,9.49-.21,1.05,0,1.97.01,2.74.04,1.71.07,2.88-.09,3.52-.49s1.68-1.73,3.13-4.01h2.43c-1.9,2.62-3.55,5.85-4.96,9.67-1.66-.3-3.42-.53-5.27-.69-1.85-.15-3.8-.23-5.84-.23-2.41,0-5.96.15-10.65.46l.7-2.21c2.13-3.17,5.32-6.74,9.56-10.73,4.2-3.94,6.9-6.7,8.12-8.27,1.76-2.28,3.04-4.42,3.83-6.44.61-1.5.91-2.96.91-4.36,0-2.11-.57-3.8-1.72-5.07-1.15-1.27-2.57-1.9-4.25-1.9-1.41,0-2.78.51-4.13,1.52-1.35,1.01-2.74,2.83-4.17,5.44Z"/>
</svg>