<?xml version="1.0" encoding="UTF-8"?>
<svg id="_レイヤー_1" data-name=" レイヤー 1" xmlns="http://www.w3.org/2000/svg" viewBox="0 0 400 400">
  <defs>
    <style>
      .cls-1 {
        fill: #39b54a;
      }

      .cls-2 {
        fill: #35d335;
      }
    </style>
  </defs>
  <g>
    <path class="cls-2" d="M249.86,235.96s42.87,6.49,57.73,2.04c14.86-4.45,33.14-16.52,41.56-29.45s21.77-48.89,23.07-57.08c1.29-8.18,1.93-15.07,7.76-23.05,5.83-7.97,5.39-7.1,5.39-7.1,0,0-61.83-9.27-83.79-1.72-21.97,7.55-48.38,25.02-56.65,58.5-5.39,21.84,4.96,57.86,4.96,57.86h-.02Z"/>
    <g>
      <path class="cls-1" d="M385.35,121.82s-37.32,8.25-55.74,19.87-29.56,23.26-36.34,31.02c-6.78,7.76-20.35,29.07-23.26,32.95-2.9,3.88-22.28,35.39-27.14,42.17-4.86,6.78-17.45,18.42-17.45,18.42,0,0-2.76.17-4.26-2.63s0-4.3,0-4.3c0,0,14.44-10.77,19.82-16.79,5.39-6.02,18.09-27.35,19.59-28.86s16.58-25.63,20.88-30.81,28.43-32.31,38.99-38.33,25.63-14.65,37.25-17.87c11.62-3.22,27.63-4.79,27.63-4.79l.02-.04Z"/>
      <path class="cls-1" d="M265.24,212.93s14.52-1.23,21.41,1.14,19.72,11.19,19.72,11.19l4.41,3.88s-5.17-8.18-13.78-13.78-12.7-5.17-19.38-5.81-10.2,0-10.2,0l-2.18,3.39v-.02Z"/>
      <path class="cls-1" d="M296.55,169.04s12.7-.42,21.1,3.01,17.87,7.76,22.62,12.28,4.73,3.71,4.73,3.71c0,0-1.29-5.22-7.1-9.31s-11.64-6.93-22.41-9.71-17.17-1.87-17.17-1.87l-1.78,1.89h.02Z"/>
      <path class="cls-1" d="M333.55,139.4s11.26-.08,17.28,4.43,13.57,13.36,13.57,13.36l1.93,3.46s-4.09-10.11-8.61-15.07c-4.52-4.96-6.25-5.6-11.64-7.1s-6.59-1.99-6.59-1.99l-5.94,2.93h0Z"/>
      <path class="cls-1" d="M319.92,120.55s5.51,1.34,8.31,4.56,5.32,11.36,5.32,11.36l-2.12,1.87s-.83-4.39-3.63-8.48-3.22-4.09-6.89-7.1-.98-2.18-.98-2.18l-.02-.02Z"/>
      <path class="cls-1" d="M299.14,163.44s-4.54-12.49-9.69-18.11c-5.15-5.62-6.09-6.11-6.09-6.11,0,0-.17,1.59,4.24,8.48,4.41,6.89,5.28,9.48,6.57,12.06s2.37,6.36,2.37,6.36l2.59-2.69Z"/>
      <path class="cls-1" d="M267.87,202.82s-1.46-10.37-5.13-16.79-9.27-10.79-9.27-10.79c0,0-.04,1.76,3.65,7.8,3.69,6.04,4.11,7.97,6.25,12.93,2.14,4.96,1.84,9.27,1.84,9.27l2.65-2.4v-.02Z"/>
    </g>
  </g>
  <g>
    <path class="cls-2" d="M150.12,236.78s-42.87,6.49-57.73,2.04c-14.86-4.45-33.14-16.52-41.56-29.45s-21.77-48.89-23.07-57.08-1.93-15.07-7.76-23.05c-5.83-7.97-5.39-7.1-5.39-7.1,0,0,61.83-9.27,83.79-1.72,21.97,7.55,48.38,25.02,56.65,58.5,5.39,21.84-4.96,57.86-4.96,57.86h.02Z"/>
    <g>
      <path class="cls-1" d="M14.64,122.62s37.32,8.25,55.74,19.87c18.42,11.64,29.56,23.26,36.34,31.02s20.35,29.07,23.26,32.95,22.28,35.39,27.14,42.17,17.45,18.42,17.45,18.42c0,0,2.76.17,4.26-2.63s0-4.3,0-4.3c0,0-14.44-10.77-19.82-16.79-5.39-6.02-18.09-27.35-19.59-28.86s-16.58-25.63-20.88-30.81-28.43-32.31-38.99-38.33c-10.56-6.02-25.63-14.65-37.25-17.87-11.64-3.22-27.63-4.79-27.63-4.79l-.02-.04Z"/>
      <path class="cls-1" d="M134.75,213.73s-14.52-1.23-21.41,1.14-19.72,11.19-19.72,11.19l-4.41,3.88s5.17-8.18,13.78-13.78c8.61-5.6,12.7-5.17,19.38-5.81,6.68-.64,10.2,0,10.2,0l2.18,3.39v-.02Z"/>
      <path class="cls-1" d="M103.41,169.84s-12.7-.42-21.1,3.01-17.87,7.76-22.62,12.28-4.73,3.71-4.73,3.71c0,0,1.29-5.22,7.1-9.31s11.64-6.93,22.41-9.71,17.17-1.87,17.17-1.87l1.78,1.89h-.02Z"/>
      <path class="cls-1" d="M66.44,140.2s-11.26-.08-17.28,4.43-13.57,13.36-13.57,13.36l-1.93,3.46s4.09-10.11,8.61-15.07,6.25-5.6,11.64-7.1,6.59-1.99,6.59-1.99c0,0,5.94,2.93,5.94,2.93Z"/>
      <path class="cls-1" d="M80.07,121.35s-5.51,1.34-8.31,4.56-5.32,11.36-5.32,11.36l2.12,1.87s.83-4.39,3.63-8.48,3.22-4.09,6.89-7.1.98-2.18.98-2.18l.02-.02Z"/>
      <path class="cls-1" d="M100.83,164.24s4.54-12.49,9.69-18.11c5.15-5.62,6.09-6.11,6.09-6.11,0,0,.17,1.59-4.24,8.48s-5.28,9.48-6.57,12.06-2.37,6.36-2.37,6.36c0,0-2.59-2.69-2.59-2.69Z"/>
      <path class="cls-1" d="M132.1,203.64s1.46-10.37,5.13-16.79,9.27-10.79,9.27-10.79c0,0,.04,1.76-3.65,7.8-3.69,6.04-4.11,7.97-6.25,12.93s-1.84,9.27-1.84,9.27l-2.65-2.4v-.02Z"/>
    </g>
  </g>
</svg>