<?xml version="1.0" encoding="UTF-8"?>
<svg id="_レイヤー_1" data-name=" レイヤー 1" xmlns="http://www.w3.org/2000/svg" viewBox="0 0 400 400">
  <defs>
    <style>
      .cls-1 {
        fill: #fff;
      }

      .cls-2 {
        fill: #e6c258;
      }

      .cls-3 {
        fill: none;
        stroke: #231815;
        stroke-miterlimit: 10;
        stroke-width: 3px;
      }

      .cls-4 {
        fill: #a37965;
      }

      .cls-5 {
        fill: #040000;
      }
    </style>
  </defs>
  <path class="cls-1" d="M365.64,64.22c27.78,116.07-129.52,152.35-129.52,152.35,0,0-162.23-46.01-129.52-152.35C126.33.14,218.65-16.9,236.13,115.76c20.43-133.55,112.86-121.1,129.52-51.54Z"/>
  <path class="cls-1" d="M193.13,209.72c31.26,32.08,74.04,43.19,74.04,43.19"/>
  <path class="cls-4" d="M142.71,139.47s-29.61,22.22-48.53,31.68c-18.92,9.46-55.12,30.85-65,54.72-9.86,23.86-13.98,61.71,6.17,92.96,20.15,31.26,53.07,60.06,88.85,68.7,35.79,8.64,81.03-16.87,95.02-44.84,13.98-27.98,48.95-92.24,48.95-92.24,0,0-51.83-24.18-74.46-42.68-22.62-18.52-51-68.28-51-68.28l.02-.02Z"/>
  <path class="cls-2" d="M123.03,153.76s23.86,38.89,44.43,60.68c20.57,21.8,42.43,38.95,59.64,48.13,18.52,9.86,34.55,12.75,34.55,12.75,0,0,9.86-3.23,11.51-10.45s-.96-11.07-7.81-14.22-27.56-9.78-54.72-30.43c-27.16-20.67-42.1-40.87-55.12-64.18-12.28-21.96-21.46-26.9-18.52-23.86,1.5,1.55-5.38-4.62-13.98,1.65-7.76,5.65,0,19.93,0,19.93h.02Z"/>
  <polygon class="cls-5" points="58.74 349.13 47.91 371.78 72.89 362.73 58.74 349.13"/>
  <path class="cls-3" d="M265,139.47s9.1-21.42,16.57-31.75,16.72-18.04,16.72-18.04"/>
  <path class="cls-3" d="M298.29,157.88s3.97-9.92,14.94-19.38,20.02-15.6,20.02-15.6"/>
  <circle class="cls-5" cx="298.2" cy="86.5" r="9.26"/>
  <circle class="cls-5" cx="336" cy="119.75" r="9.26"/>
  <path class="cls-3" d="M52.59,202.32s11.7,47.39,57.78,88.18c42.42,37.53,104.85,49.62,104.85,49.62"/>
  <path class="cls-2" d="M157.72,159.94l-39.49,31.11s-6.12,6.55-3.33,10.92c2.79,4.37,24.18-10.97,28.52-6.59s-30.22,38.45-30.22,38.45c0,0-6.67,4.27,0,11.33,6.67,7.06,42.37-29.8,51.83-21.21,9.48,8.6-4.72,17.68,4.55,27.34,9.29,9.66,45.64-27.73,45.64-27.73,0,0-20.3-18.87-30.79-29.8-10.49-10.92-26.72-33.83-26.72-33.83h0Z"/>
  <circle class="cls-2" cx="256.51" cy="190.22" r="59.49"/>
  <path class="cls-3" d="M29.34,246.37s21.86,47.68,61.04,79.39c39.17,31.71,92.61,46.03,92.61,46.03"/>
</svg>