<?xml version="1.0" encoding="UTF-8"?>
<svg id="_レイヤー_1" data-name=" レイヤー 1" xmlns="http://www.w3.org/2000/svg" viewBox="0 0 400 400">
  <defs>
    <style>
      .cls-1 {
        fill: #8f6552;
      }

      .cls-2 {
        fill: #ecc656;
      }
    </style>
  </defs>
  <circle class="cls-1" cx="200.01" cy="199.99" r="46.28"/>
  <ellipse class="cls-2" cx="200.01" cy="82.1" rx="16.26" ry="71.6"/>
  <ellipse class="cls-2" cx="163.55" cy="87.85" rx="16.26" ry="71.6" transform="translate(-19.14 54.84) rotate(-18)"/>
  <ellipse class="cls-2" cx="130.69" cy="104.59" rx="16.26" ry="71.6" transform="translate(-36.52 96.79) rotate(-36)"/>
  <ellipse class="cls-2" cx="104.61" cy="130.68" rx="16.26" ry="71.6" transform="translate(-62.6 138.5) rotate(-54)"/>
  <ellipse class="cls-2" cx="87.88" cy="163.54" rx="16.26" ry="71.6" transform="translate(-94.81 196.58) rotate(-72)"/>
  <ellipse class="cls-2" cx="82.1" cy="199.99" rx="71.6" ry="16.26"/>
  <ellipse class="cls-2" cx="87.88" cy="236.43" rx="71.6" ry="16.26" transform="translate(-68.76 38.73) rotate(-18)"/>
  <ellipse class="cls-2" cx="104.62" cy="269.29" rx="71.6" ry="16.26" transform="translate(-138.3 112.93) rotate(-36)"/>
  <ellipse class="cls-2" cx="130.69" cy="295.38" rx="71.6" ry="16.26" transform="translate(-185.09 227.49) rotate(-54)"/>
  <ellipse class="cls-2" cx="163.55" cy="312.15" rx="71.6" ry="16.26" transform="translate(-183.87 371.23) rotate(-72)"/>
  <ellipse class="cls-2" cx="200.01" cy="317.9" rx="16.26" ry="71.6"/>
  <ellipse class="cls-2" cx="236.44" cy="312.12" rx="16.26" ry="71.6" transform="translate(-84.88 88.34) rotate(-18)"/>
  <ellipse class="cls-2" cx="269.3" cy="295.37" rx="16.26" ry="71.6" transform="translate(-122.18 214.7) rotate(-36)"/>
  <ellipse class="cls-2" cx="295.4" cy="269.31" rx="16.26" ry="71.6" transform="translate(-96.1 350) rotate(-54)"/>
  <ellipse class="cls-2" cx="312.14" cy="236.43" rx="16.26" ry="71.6" transform="translate(-9.17 460.23) rotate(-72)"/>
  <ellipse class="cls-2" cx="317.9" cy="199.99" rx="71.6" ry="16.26"/>
  <ellipse class="cls-2" cx="312.14" cy="163.55" rx="71.6" ry="16.26" transform="translate(-35.26 104.46) rotate(-18)"/>
  <ellipse class="cls-2" cx="295.4" cy="130.68" rx="71.6" ry="16.26" transform="translate(-20.39 198.59) rotate(-36)"/>
  <ellipse class="cls-2" cx="269.31" cy="104.59" rx="71.6" ry="16.26" transform="translate(26.4 260.99) rotate(-54)"/>
  <ellipse class="cls-2" cx="236.44" cy="87.86" rx="71.6" ry="16.26" transform="translate(79.82 285.57) rotate(-72)"/>
</svg>