<?xml version="1.0" encoding="UTF-8"?>
<svg id="_レイヤー_1" data-name=" レイヤー 1" xmlns="http://www.w3.org/2000/svg" viewBox="0 0 400 400">
  <defs>
    <style>
      .cls-1 {
        fill: #39b54a;
        stroke: #35d335;
        stroke-miterlimit: 10;
      }

      .cls-2 {
        fill: #35d335;
      }
    </style>
  </defs>
  <path class="cls-2" d="M81.49,299.46s95.74,14.49,128.93,4.55c33.19-9.95,74.01-36.9,92.8-65.77,18.79-28.87,48.63-109.21,51.53-127.49s4.34-33.68,17.31-51.47,12.03-15.87,12.03-15.87c0,0-138.08-20.69-187.14-3.85-49.06,16.84-108.09,55.88-126.52,130.67-12.03,48.78,11.06,129.25,11.06,129.25v-.02Z"/>
  <g>
    <path class="cls-1" d="M384.11,44.48s-83.35,18.39-124.48,44.38-66.04,51.96-81.19,69.28c-15.15,17.31-45.46,64.96-51.96,73.61-6.5,8.66-49.8,79.01-60.62,94.17s-38.97,41.13-38.97,41.13c0,0-6.14.36-9.51-5.89s0-9.62,0-9.62c0,0,32.24-24.06,44.27-37.53,12.03-13.47,40.41-61.09,43.78-64.46s37.05-57.25,46.66-68.8,63.5-72.17,87.08-85.64c23.57-13.47,57.25-32.72,83.24-39.93,25.97-7.22,61.7-10.7,61.7-10.7v.02Z"/>
    <path class="cls-1" d="M115.8,247.97s32.45-2.75,47.85,2.54c15.4,5.29,44.02,25.02,44.02,25.02l9.87,8.66s-11.56-18.28-30.78-30.78c-19.23-12.5-28.38-11.56-43.3-13s-22.77,0-22.77,0l-4.87,7.56h-.02Z"/>
    <path class="cls-1" d="M185.77,149.97s28.38-.97,47.15,6.72,39.93,17.31,50.52,27.43,19.72,21.65,19.72,21.65c0,0-12.03-25.02-25.02-34.16-13-9.15-25.97-15.46-50.03-21.69-24.06-6.21-38.38-4.19-38.38-4.19l-3.96,4.22Z"/>
    <path class="cls-1" d="M268.41,83.77s25.14-.19,38.61,9.91,30.31,29.84,30.31,29.84l4.34,7.69s-9.15-22.62-19.25-33.68c-10.1-11.06-13.96-12.5-25.97-15.87-12.01-3.37-14.74-4.43-14.74-4.43l-13.28,6.55h-.02Z"/>
    <path class="cls-1" d="M229.55,40.48s20.69,4.11,26.94,11.33c6.25,7.22,11.9,25.38,11.9,25.38l-4.75,4.17s-1.86-9.83-8.11-18.96-7.22-9.15-15.4-15.87-10.59-6.04-10.59-6.04h.02Z"/>
    <path class="cls-1" d="M191.57,137.47s-10.12-27.92-21.65-40.43c-11.56-12.5-22.5-17.58-22.5-17.58,0,0,8.56,7.48,18.43,22.88,9.85,15.4,11.78,21.16,14.66,26.94s5.3,14.23,5.3,14.23l5.78-6.02-.02-.02Z"/>
    <path class="cls-1" d="M121.71,225.43s-3.28-23.15-11.46-37.51c-8.18-14.38-26.94-29.53-26.94-29.53,0,0,6.18,9.4,14.4,22.86,8.22,13.47,9.19,17.81,14,28.87,4.81,11.06,4.11,20.69,4.11,20.69l5.91-5.36-.02-.02Z"/>
  </g>
</svg>