<?xml version="1.0" encoding="UTF-8"?>
<svg id="_レイヤー_1" data-name="レイヤー_1" xmlns="http://www.w3.org/2000/svg" version="1.1" viewBox="0 0 400 400">
  <!-- Generator: Adobe Illustrator 29.8.1, SVG Export Plug-In . SVG Version: 2.1.1 Build 2)  -->
  <defs>
    <style>
      .st0 {
        fill: #8f6552;
      }

      .st0, .st1, .st2 {
        stroke: #000;
        stroke-width: 4px;
      }

      .st0, .st2 {
        stroke-linecap: round;
        stroke-linejoin: round;
      }

      .st1 {
        stroke-miterlimit: 10;
      }

      .st1, .st2 {
        fill: #ecc656;
      }
    </style>
  </defs>
  <path class="st0" d="M135.12,128.43s-4.98,27.88-10.63,43.05-14.75,46.02-7.82,64.53c6.92,18.5,24.37,41.82,51.96,48.8,27.59,6.98,61.03,5.92,85.56-7.92,24.53-13.84,36.54-51.72,29.77-74.67-6.77-22.95-20.74-77.15-20.74-77.15,0,0-41.62,13.52-63.94,14.96-22.32,1.45-64.17-11.59-64.17-11.59Z"/>
  <path class="st2" d="M130.11,145.81s28.78,9.96,56.52,10.78c22.92.68,44.07-.35,58.49-4.19,12.69-3.38,22.63-6.34,25.59-8.1.68-.41,1.04-1.11,1.54-1.73,2.7-3.33,2-9.22-.16-12.93-2.85-4.9-6.31-5.7-11.8-3.88-5.48,1.82-20.52,8.91-46.5,11.51-25.97,2.6-45.81,1.49-64.33-7.15-14.13-6.59-20.81-2.02-22.36,5.98-1.4,7.21,2.99,9.7,2.99,9.7Z"/>
  <path class="st1" d="M149.48,130.13l-6.76,42.7s-.36,6.85,3.42,8.04c3.78,1.19,8.78-18.33,13.47-17.88s1.2,37.39,1.2,37.39c0,0-1.82,5.78,5.57,6.64s10.17-38.3,19.95-37.91c9.78.38,5.92,12.68,16.12,13.78,10.2,1.1,11.35-45.62,11.35-45.62,0,0-17.31,1.4-33.22.79-14.3-.55-31.11-7.93-31.11-7.93Z"/>
  <path d="M193.24,213.3l-1.44-1.02c2.39-2.72,4.15-4.44,5.27-5.17,2.04-1.31,4.11-1.97,6.22-1.97s3.86.55,5.1,1.65,1.86,2.52,1.86,4.25c0,3.66-2.77,7.54-8.3,11.64,1.9.09,3.34.43,4.32,1.02s1.79,1.48,2.41,2.69.93,2.64.93,4.31c0,4.52-2.29,8.73-6.86,12.62-3.91,3.33-7.93,4.99-12.06,4.99-1.85,0-3.52-.42-5.01-1.27s-2.23-1.89-2.23-3.13c0-.52.19-.97.58-1.35s.84-.58,1.35-.58c.7,0,1.51.43,2.43,1.3,1.2,1.15,2.09,1.86,2.67,2.14.82.4,1.55.6,2.18.6,1.83,0,3.87-1.08,6.12-3.23,3.33-3.14,4.99-6.61,4.99-10.41,0-1.9-.52-3.42-1.56-4.55s-2.38-1.71-4.03-1.71c-1.2,0-2.55.27-4.08.81l.25-2.18c3-1.05,5.7-2.92,8.09-5.59,1.69-1.88,2.53-3.77,2.53-5.7,0-1.45-.37-2.59-1.11-3.41s-1.74-1.23-3.01-1.23c-2.67,0-5.21,1.49-7.63,4.46Z"/>
</svg>